<svg width="581" height="106" viewBox="0 0 581 106" fill="none" xmlns="http://www.w3.org/2000/svg">
<path d="M139.461 86.4163C134.062 86.4163 126.903 85.3809 119.551 82.8958L115.513 60.1749H120.912L129.21 77.9108C132.213 78.9462 135.749 79.5675 139.683 79.5675C150.985 79.5675 157.419 74.6861 157.419 67.0089C157.419 60.8849 153.484 57.9856 147.878 55.8112L134.388 50.6191C125.571 47.2021 119.033 41.9064 119.033 32.0548C119.033 18.8749 130.231 10.3694 145.378 10.3694C149.949 10.3694 154.402 11.0942 158.455 12.3367L160.94 9.23036H165.2V33.2974H159.801L155.541 18.4607C152.538 17.5288 149.417 17.2182 146.517 17.2182C136.459 17.2182 130.024 21.6854 130.024 29.0372C130.024 35.0576 134.388 37.7498 140.083 39.9243L152.937 45.0128C161.96 48.5334 168.291 53.9325 168.291 63.8877C168.291 77.3783 156.251 86.4015 139.447 86.4015L139.461 86.4163ZM251.35 48.8588C251.35 40.2497 247.415 37.7646 240.773 37.7646C237.135 37.7646 233.096 38.1788 227.904 39.3178C228.318 40.7674 228.526 42.4242 228.526 44.3028V78.5321L236.203 79.5675V84.9667H209.34V79.5675L217.431 78.4285V48.8588C217.431 40.2497 213.482 37.7646 206.751 37.7646C203.127 37.7646 199.074 38.1788 194.622 39.2143V78.5321L202.713 79.5675V84.9667H174.815V79.5675L183.527 78.5321V42.0248L174.711 38.6078V35.2943L191.412 29.8951H194.622V36.2262C201.263 32.2915 208.009 29.481 213.704 29.481C219.828 29.481 224.591 31.759 226.987 36.5369C234.975 32.0696 241.72 29.481 247.726 29.481C256.438 29.481 262.459 34.3624 262.459 44.3176V78.5468L271.172 79.5823V84.9815H243.377V79.5823L251.365 78.5468V48.8736L251.35 48.8588ZM304.676 79.5675V84.9667H276.157V79.5675L284.869 78.5321V42.0248L276.053 38.6078V35.2943L292.753 29.8951H295.963V78.5468L304.676 79.5823V79.5675ZM284.248 20.3246V5.9169H296.91V20.3393H284.248V20.3246ZM330.488 86.4163C321.776 86.4163 316.273 81.8455 316.273 71.3726V37.5575H306.732V32.2619L316.377 31.1229L322.087 16.4934H327.382V30.9158H345.118V37.5575H327.382V69.0946C327.382 75.7363 330.178 77.9108 336.095 77.9108C338.373 77.9108 342.529 77.4966 346.361 76.4611V82.171C340.961 84.5525 335.577 86.4311 330.488 86.4311V86.4163ZM396.033 49.4801C396.033 40.871 391.773 38.1788 384.525 38.1788C380.575 38.1788 376.226 38.8001 371.345 40.0426V78.5321L379.85 79.5675V84.9667H351.523V79.5675L360.236 78.5321V12.2332L351.42 8.71264V5.50272L368.12 0H371.33V36.6108C378.489 32.3507 385.442 29.4514 391.654 29.4514C400.885 29.4514 407.112 34.5399 407.112 44.5986V78.5173L415.825 79.5527V84.9519H387.616V79.5527L396.018 78.5173V49.4653L396.033 49.4801ZM448.486 86.4163C432.407 86.4163 420.795 75.8399 420.795 58.4146C420.795 40.9893 431.165 29.4662 447.244 29.4662C461.873 29.4662 469.343 39.6284 471 53.2225L466.119 59.3465H432.407C433.339 73.3548 441.43 77.9108 453.56 77.9108C458.338 77.9108 464.447 76.9789 468.707 75.9434V81.7568C463.308 84.0348 456.474 86.4311 448.471 86.4311L448.486 86.4163ZM432.407 52.5864H459.995C459.684 42.4242 455.113 36.3002 446.608 36.3002C438.102 36.3002 433.324 41.9064 432.392 52.5864H432.407ZM509.623 79.5675V84.9667H476.74V79.5675L485.452 78.5321V42.0248L476.636 38.6078V35.2943L493.336 29.8951H496.546V38.8149C500.806 33.6228 506.294 29.481 511.901 29.481C513.143 29.481 514.593 29.688 515.436 29.8951V40.7822C512.744 40.2645 510.555 40.161 508.069 40.161C504.86 40.161 500.806 40.5751 496.561 41.9212V78.5321L509.637 79.5675H509.623ZM525.85 105.705V102.496L546.81 80.9136L525.125 37.454L518.38 36.4185V30.9158H545.242V36.4185L537.565 37.454L551.884 69.8194L565.789 37.454L557.905 36.4185V30.9158H580.315V36.4185L573.673 37.454L541.618 105.705H525.85Z" fill="#FF5601"/>
<path d="M17.7063 35.2646H0V44.9388C0 52.542 6.16837 58.7104 13.7716 58.7104H23.4457V41.004C23.4457 37.8385 20.8719 35.2646 17.7063 35.2646Z" fill="#FF5601"/>
<path d="M28.0608 41.004V58.7104H45.7671C48.9327 58.7104 51.5065 56.1365 51.5065 52.971V35.2646H33.8002C30.6346 35.2646 28.0608 37.8385 28.0608 41.004Z" fill="#FF5601"/>
<path d="M65.8106 35.2646H56.1365V52.971C56.1365 56.1365 58.7103 58.7104 61.8759 58.7104H79.5822V47.4387C79.5822 39.8355 73.4138 35.2794 65.8106 35.2794V35.2646Z" fill="#FF5601"/>
<path d="M0 21.8772V30.649H17.7063C20.8719 30.649 23.4457 28.0751 23.4457 24.9096V2.36621C10.9759 2.45496 0.0147923 8.59375 0 21.8772Z" fill="#FF5601"/>
<path d="M28.0608 24.9096C28.0608 28.0751 30.6346 30.649 33.8002 30.649H51.5065V7.23283C42.853 5.91632 38.3414 3.10579 28.0608 2.46973V24.8948V24.9096Z" fill="#FF5601"/>
<path d="M61.1806 7.91307C59.3464 7.91307 57.6749 7.85391 56.1365 7.75036V30.6488H65.8106C73.4138 30.6488 79.5822 24.4804 79.5822 16.8772V2.43994C75.2776 5.81257 69.1684 7.91307 61.1806 7.91307Z" fill="#FF5601"/>
<path d="M0 77.0966V91.5339C4.30455 88.1612 10.4137 86.0607 18.4016 86.0607C20.2358 86.0607 21.9073 86.1199 23.4457 86.2382V63.3398H13.7716C6.16837 63.3398 0 69.5082 0 77.1114L0 77.0966Z" fill="#FF5601"/>
<path d="M45.7671 63.3398H28.0608V86.7412C36.7143 88.0577 41.2259 90.8682 51.5065 91.5043V69.0792C51.5065 65.9137 48.9327 63.3398 45.7671 63.3398Z" fill="#FF5601"/>
<path d="M56.1365 69.0646V91.608C68.5915 91.5192 79.5378 85.3804 79.5822 72.1266V63.3252H61.8759C58.7103 63.3252 56.1365 65.899 56.1365 69.0646Z" fill="#FF5601"/>
</svg>
